<mxfile host="app.diagrams.net" modified="2021-07-16T15:51:47.456Z" agent="5.0 (Windows NT 10.0; Win64; x64) AppleWebKit/537.36 (KHTML, like Gecko) Chrome/91.0.4472.114 Safari/537.36 Edg/91.0.864.54" etag="mYMf4WaXbXLx23B7jn_t" version="14.8.6" type="github">
  <diagram id="TDn6u3CqOv_SpoJ7cF0a" name="Page-1">
    <mxGraphModel dx="1182" dy="764" grid="1" gridSize="10" guides="1" tooltips="1" connect="1" arrows="1" fold="1" page="1" pageScale="1" pageWidth="2339" pageHeight="3300" math="0" shadow="0">
      <root>
        <mxCell id="0" />
        <mxCell id="1" parent="0" />
        <mxCell id="3u73HV85L4IYp6hgZmKh-176" value="" style="group" parent="1" vertex="1" connectable="0">
          <mxGeometry x="120" y="840" width="150" height="120" as="geometry" />
        </mxCell>
        <mxCell id="3u73HV85L4IYp6hgZmKh-1" value="&lt;span style=&quot;color: rgba(0 , 0 , 0 , 0) ; font-family: monospace ; font-size: 0px&quot;&gt;%3CmxGraphModel%3E%3Croot%3E%3CmxCell%20id%3D%220%22%2F%3E%3CmxCell%20id%3D%221%22%20parent%3D%220%22%2F%3E%3CmxCell%20id%3D%222%22%20value%3D%22%26lt%3Bb%20style%3D%26quot%3Bfont-size%3A%2013px%3B%26quot%3B%26gt%3BUltrasonic%20Sensor%26lt%3B%2Fb%26gt%3B%22%20style%3D%22text%3Bhtml%3D1%3BstrokeColor%3Dnone%3BfillColor%3Dnone%3Balign%3Dcenter%3BverticalAlign%3Dmiddle%3BwhiteSpace%3Dwrap%3Brounded%3D0%3BfontSize%3D13%3BfontStyle%3D0%22%20vertex%3D%221%22%20parent%3D%221%22%3E%3CmxGeometry%20x%3D%22230%22%20y%3D%22930%22%20width%3D%2240%22%20height%3D%2210%22%20as%3D%22geometry%22%2F%3E%3C%2FmxCell%3E%3C%2Froot%3E%3C%2FmxGraphModel%3E&lt;/span&gt;" style="rounded=0;whiteSpace=wrap;html=1;strokeWidth=2;" parent="3u73HV85L4IYp6hgZmKh-176" vertex="1">
          <mxGeometry width="150" height="120" as="geometry" />
        </mxCell>
        <mxCell id="3u73HV85L4IYp6hgZmKh-3" value="&lt;b style=&quot;font-size: 13px;&quot;&gt;SENSORS&lt;/b&gt;" style="text;html=1;strokeColor=none;fillColor=none;align=center;verticalAlign=middle;whiteSpace=wrap;rounded=0;fontSize=13;" parent="3u73HV85L4IYp6hgZmKh-176" vertex="1">
          <mxGeometry x="51.5625" y="10" width="46.875" height="10" as="geometry" />
        </mxCell>
        <mxCell id="3u73HV85L4IYp6hgZmKh-9" value="" style="verticalLabelPosition=bottom;html=1;strokeColor=#ffffff;verticalAlign=top;align=center;points=[[0.145,0.145,0],[0.5,0,0],[0.855,0.145,0],[1,0.5,0],[0.855,0.855,0],[0.5,1,0],[0.145,0.855,0],[0,0.5,0]];pointerEvents=1;shape=mxgraph.cisco_safe.compositeIcon;bgIcon=ellipse;resIcon=mxgraph.cisco_safe.capability.wireless_rogue_detection;fillColor=#1A1A1A;" parent="3u73HV85L4IYp6hgZmKh-176" vertex="1">
          <mxGeometry x="18.75" y="30" width="37.5" height="40" as="geometry" />
        </mxCell>
        <mxCell id="3u73HV85L4IYp6hgZmKh-169" value="" style="shape=image;html=1;verticalAlign=top;verticalLabelPosition=bottom;labelBackgroundColor=#FFFFFF;imageAspect=0;aspect=fixed;image=https://cdn3.iconfinder.com/data/icons/handheld-devices-and-hand-gestures/400/Handheld-07-128.png;fillColor=#1A1A1A;strokeWidth=7;" parent="3u73HV85L4IYp6hgZmKh-176" vertex="1">
          <mxGeometry x="93.75" y="30" width="41.25" height="41.25" as="geometry" />
        </mxCell>
        <mxCell id="3u73HV85L4IYp6hgZmKh-172" value="&lt;b style=&quot;font-size: 13px;&quot;&gt;Ultrasonic Sensor&lt;/b&gt;" style="text;html=1;strokeColor=none;fillColor=none;align=center;verticalAlign=middle;whiteSpace=wrap;rounded=0;fontSize=13;fontStyle=0" parent="3u73HV85L4IYp6hgZmKh-176" vertex="1">
          <mxGeometry x="18.75" y="90" width="37.5" height="10" as="geometry" />
        </mxCell>
        <mxCell id="3u73HV85L4IYp6hgZmKh-174" value="&lt;b style=&quot;font-size: 13px&quot;&gt;Gesture&amp;nbsp; Sensor&lt;/b&gt;" style="text;html=1;strokeColor=none;fillColor=none;align=center;verticalAlign=middle;whiteSpace=wrap;rounded=0;fontSize=13;fontStyle=0" parent="3u73HV85L4IYp6hgZmKh-176" vertex="1">
          <mxGeometry x="93.75" y="90" width="37.5" height="10" as="geometry" />
        </mxCell>
        <mxCell id="3u73HV85L4IYp6hgZmKh-187" value="" style="group" parent="1" vertex="1" connectable="0">
          <mxGeometry x="320" y="840" width="140" height="120" as="geometry" />
        </mxCell>
        <mxCell id="3u73HV85L4IYp6hgZmKh-2" value="" style="rounded=0;whiteSpace=wrap;html=1;strokeWidth=2;" parent="3u73HV85L4IYp6hgZmKh-187" vertex="1">
          <mxGeometry width="140" height="120" as="geometry" />
        </mxCell>
        <mxCell id="3u73HV85L4IYp6hgZmKh-7" value="&lt;span style=&quot;font-size: 13px;&quot;&gt;ACTUATORS&lt;/span&gt;" style="text;html=1;strokeColor=none;fillColor=none;align=center;verticalAlign=middle;whiteSpace=wrap;rounded=0;fontSize=13;fontStyle=1" parent="3u73HV85L4IYp6hgZmKh-187" vertex="1">
          <mxGeometry x="26.25" y="10" width="87.5" height="10" as="geometry" />
        </mxCell>
        <mxCell id="3u73HV85L4IYp6hgZmKh-181" value="" style="shape=image;html=1;verticalAlign=top;verticalLabelPosition=bottom;labelBackgroundColor=#ffffff;imageAspect=0;aspect=fixed;image=https://cdn2.iconfinder.com/data/icons/electronic-13/480/6-electronic-led-icon-2-128.png;fontSize=13;fontColor=#1A1A1A;strokeWidth=7;fillColor=#1A1A1A;fontStyle=0" parent="3u73HV85L4IYp6hgZmKh-187" vertex="1">
          <mxGeometry x="17.5" y="30" width="39.375" height="39.375" as="geometry" />
        </mxCell>
        <mxCell id="3u73HV85L4IYp6hgZmKh-184" value="" style="shape=image;html=1;verticalAlign=top;verticalLabelPosition=bottom;labelBackgroundColor=#ffffff;imageAspect=0;aspect=fixed;image=https://cdn1.iconfinder.com/data/icons/essentials-pack/96/computer_screen_display_monitor_desktop-128.png;fontSize=13;fontColor=#1A1A1A;strokeWidth=7;fillColor=#1A1A1A;" parent="3u73HV85L4IYp6hgZmKh-187" vertex="1">
          <mxGeometry x="83.125" y="35" width="30.625" height="30.625" as="geometry" />
        </mxCell>
        <mxCell id="3u73HV85L4IYp6hgZmKh-185" value="&lt;b style=&quot;font-size: 13px&quot;&gt;LED Indication&lt;/b&gt;" style="text;html=1;strokeColor=none;fillColor=none;align=center;verticalAlign=middle;whiteSpace=wrap;rounded=0;fontSize=13;fontStyle=0" parent="3u73HV85L4IYp6hgZmKh-187" vertex="1">
          <mxGeometry x="21.877333333333336" y="90" width="35" height="10" as="geometry" />
        </mxCell>
        <mxCell id="3u73HV85L4IYp6hgZmKh-186" value="&lt;b style=&quot;font-size: 13px&quot;&gt;Display&lt;/b&gt;" style="text;html=1;strokeColor=none;fillColor=none;align=center;verticalAlign=middle;whiteSpace=wrap;rounded=0;fontSize=13;fontStyle=0" parent="3u73HV85L4IYp6hgZmKh-187" vertex="1">
          <mxGeometry x="83.125" y="80" width="35" height="10" as="geometry" />
        </mxCell>
        <mxCell id="3u73HV85L4IYp6hgZmKh-195" value="" style="group;strokeWidth=2;" parent="1" vertex="1" connectable="0">
          <mxGeometry x="510" y="840" width="145" height="120" as="geometry" />
        </mxCell>
        <mxCell id="3u73HV85L4IYp6hgZmKh-4" value="" style="rounded=0;whiteSpace=wrap;html=1;strokeWidth=2;" parent="3u73HV85L4IYp6hgZmKh-195" vertex="1">
          <mxGeometry width="145" height="120" as="geometry" />
        </mxCell>
        <mxCell id="3u73HV85L4IYp6hgZmKh-6" value="&lt;span style=&quot;font-size: 13px;&quot;&gt;SENSORS&lt;/span&gt;" style="text;html=1;strokeColor=none;fillColor=none;align=center;verticalAlign=middle;whiteSpace=wrap;rounded=0;fontStyle=1;fontSize=13;" parent="3u73HV85L4IYp6hgZmKh-195" vertex="1">
          <mxGeometry x="52.5" y="10" width="40" height="10" as="geometry" />
        </mxCell>
        <mxCell id="3u73HV85L4IYp6hgZmKh-188" value="" style="shape=image;html=1;verticalAlign=top;verticalLabelPosition=bottom;labelBackgroundColor=#ffffff;imageAspect=0;aspect=fixed;image=https://cdn1.iconfinder.com/data/icons/iconnice-vector-icon/30/Vector-icons_49-128.png;fontSize=13;fontColor=#1A1A1A;strokeWidth=7;fillColor=#1A1A1A;" parent="3u73HV85L4IYp6hgZmKh-195" vertex="1">
          <mxGeometry x="10" y="25" width="50" height="50" as="geometry" />
        </mxCell>
        <mxCell id="3u73HV85L4IYp6hgZmKh-192" value="" style="shape=image;html=1;verticalAlign=top;verticalLabelPosition=bottom;labelBackgroundColor=#ffffff;imageAspect=0;aspect=fixed;image=https://cdn0.iconfinder.com/data/icons/feather/96/drop-128.png;fontSize=13;fontColor=#000000;strokeWidth=7;fillColor=#1A1A1A;" parent="3u73HV85L4IYp6hgZmKh-195" vertex="1">
          <mxGeometry x="85" y="25" width="45" height="45" as="geometry" />
        </mxCell>
        <mxCell id="3u73HV85L4IYp6hgZmKh-193" value="&lt;b style=&quot;font-size: 13px&quot;&gt;Temperature and Humidity sensor&lt;/b&gt;" style="text;html=1;strokeColor=none;fillColor=none;align=center;verticalAlign=middle;whiteSpace=wrap;rounded=0;fontSize=13;fontStyle=0" parent="3u73HV85L4IYp6hgZmKh-195" vertex="1">
          <mxGeometry x="10" y="90" width="120" height="10" as="geometry" />
        </mxCell>
        <mxCell id="3u73HV85L4IYp6hgZmKh-199" value="" style="group" parent="1" vertex="1" connectable="0">
          <mxGeometry x="710" y="840" width="140" height="120" as="geometry" />
        </mxCell>
        <mxCell id="3u73HV85L4IYp6hgZmKh-200" value="" style="rounded=0;whiteSpace=wrap;html=1;strokeWidth=2;" parent="3u73HV85L4IYp6hgZmKh-199" vertex="1">
          <mxGeometry width="140" height="120" as="geometry" />
        </mxCell>
        <mxCell id="3u73HV85L4IYp6hgZmKh-201" value="&lt;span style=&quot;font-size: 13px;&quot;&gt;ACTUATORS&lt;/span&gt;" style="text;html=1;strokeColor=none;fillColor=none;align=center;verticalAlign=middle;whiteSpace=wrap;rounded=0;fontSize=13;fontStyle=1" parent="3u73HV85L4IYp6hgZmKh-199" vertex="1">
          <mxGeometry x="26.25" y="10" width="87.5" height="10" as="geometry" />
        </mxCell>
        <mxCell id="3u73HV85L4IYp6hgZmKh-202" value="" style="shape=image;html=1;verticalAlign=top;verticalLabelPosition=bottom;labelBackgroundColor=#ffffff;imageAspect=0;aspect=fixed;image=https://cdn2.iconfinder.com/data/icons/electronic-13/480/6-electronic-led-icon-2-128.png;fontSize=13;fontColor=#1A1A1A;strokeWidth=7;fillColor=#1A1A1A;fontStyle=0" parent="3u73HV85L4IYp6hgZmKh-199" vertex="1">
          <mxGeometry x="17.5" y="30" width="39.375" height="39.375" as="geometry" />
        </mxCell>
        <mxCell id="3u73HV85L4IYp6hgZmKh-203" value="" style="shape=image;html=1;verticalAlign=top;verticalLabelPosition=bottom;labelBackgroundColor=#ffffff;imageAspect=0;aspect=fixed;image=https://cdn1.iconfinder.com/data/icons/essentials-pack/96/computer_screen_display_monitor_desktop-128.png;fontSize=13;fontColor=#1A1A1A;strokeWidth=7;fillColor=#1A1A1A;" parent="3u73HV85L4IYp6hgZmKh-199" vertex="1">
          <mxGeometry x="83.125" y="35" width="30.625" height="30.625" as="geometry" />
        </mxCell>
        <mxCell id="3u73HV85L4IYp6hgZmKh-204" value="&lt;b style=&quot;font-size: 13px&quot;&gt;LED Indication&lt;/b&gt;" style="text;html=1;strokeColor=none;fillColor=none;align=center;verticalAlign=middle;whiteSpace=wrap;rounded=0;fontSize=13;fontStyle=0" parent="3u73HV85L4IYp6hgZmKh-199" vertex="1">
          <mxGeometry x="21.877333333333336" y="90" width="35" height="10" as="geometry" />
        </mxCell>
        <mxCell id="3u73HV85L4IYp6hgZmKh-205" value="&lt;b style=&quot;font-size: 13px&quot;&gt;Display&lt;/b&gt;" style="text;html=1;strokeColor=none;fillColor=none;align=center;verticalAlign=middle;whiteSpace=wrap;rounded=0;fontSize=13;fontStyle=0" parent="3u73HV85L4IYp6hgZmKh-199" vertex="1">
          <mxGeometry x="83.125" y="80" width="35" height="10" as="geometry" />
        </mxCell>
        <mxCell id="3u73HV85L4IYp6hgZmKh-213" value="" style="group" parent="1" vertex="1" connectable="0">
          <mxGeometry x="320" y="690" width="140" height="100" as="geometry" />
        </mxCell>
        <mxCell id="3u73HV85L4IYp6hgZmKh-209" value="" style="rounded=0;whiteSpace=wrap;html=1;labelBackgroundColor=#FFFFFF;fontSize=13;fontColor=#FFFFFF;strokeWidth=2;fillColor=none;" parent="3u73HV85L4IYp6hgZmKh-213" vertex="1">
          <mxGeometry width="140" height="100" as="geometry" />
        </mxCell>
        <mxCell id="3u73HV85L4IYp6hgZmKh-210" value="&lt;font color=&quot;#000000&quot;&gt;&lt;b&gt;PROGRAM EXECUTION&lt;/b&gt;&lt;/font&gt;" style="text;html=1;strokeColor=none;fillColor=none;align=center;verticalAlign=middle;whiteSpace=wrap;rounded=0;labelBackgroundColor=#FFFFFF;fontSize=13;fontColor=#FFFFFF;" parent="3u73HV85L4IYp6hgZmKh-213" vertex="1">
          <mxGeometry x="50" y="30" width="40" height="20" as="geometry" />
        </mxCell>
        <mxCell id="3u73HV85L4IYp6hgZmKh-214" value="" style="group" parent="1" vertex="1" connectable="0">
          <mxGeometry x="120" y="690" width="150" height="100" as="geometry" />
        </mxCell>
        <mxCell id="3u73HV85L4IYp6hgZmKh-207" value="" style="rounded=0;whiteSpace=wrap;html=1;labelBackgroundColor=#FFFFFF;fontSize=13;fontColor=#FFFFFF;strokeWidth=2;fillColor=none;" parent="3u73HV85L4IYp6hgZmKh-214" vertex="1">
          <mxGeometry width="150" height="100" as="geometry" />
        </mxCell>
        <mxCell id="3u73HV85L4IYp6hgZmKh-208" value="&lt;font color=&quot;#000000&quot;&gt;&lt;b&gt;DATA PROCESSING&lt;/b&gt;&lt;/font&gt;" style="text;html=1;strokeColor=none;fillColor=none;align=center;verticalAlign=middle;whiteSpace=wrap;rounded=0;labelBackgroundColor=#FFFFFF;fontSize=13;fontColor=#FFFFFF;" parent="3u73HV85L4IYp6hgZmKh-214" vertex="1">
          <mxGeometry x="55" y="30" width="40" height="20" as="geometry" />
        </mxCell>
        <mxCell id="3u73HV85L4IYp6hgZmKh-226" value="" style="group" parent="1" vertex="1" connectable="0">
          <mxGeometry x="197" y="290" width="143" height="100" as="geometry" />
        </mxCell>
        <mxCell id="3u73HV85L4IYp6hgZmKh-223" value="&lt;font color=&quot;#000000&quot;&gt;Alert indicating user display&lt;/font&gt;" style="text;html=1;strokeColor=none;fillColor=none;align=center;verticalAlign=middle;whiteSpace=wrap;rounded=0;labelBackgroundColor=#FFFFFF;fontSize=13;fontColor=#FFFFFF;fontStyle=1" parent="3u73HV85L4IYp6hgZmKh-226" vertex="1">
          <mxGeometry x="49.50000000000001" y="38.88888888888889" width="44" height="22.22222222222222" as="geometry" />
        </mxCell>
        <mxCell id="3u73HV85L4IYp6hgZmKh-224" style="edgeStyle=orthogonalEdgeStyle;rounded=0;orthogonalLoop=1;jettySize=auto;html=1;exitX=0.5;exitY=1;exitDx=0;exitDy=0;fontSize=13;fontColor=#FFFFFF;" parent="3u73HV85L4IYp6hgZmKh-226" source="3u73HV85L4IYp6hgZmKh-223" target="3u73HV85L4IYp6hgZmKh-223" edge="1">
          <mxGeometry relative="1" as="geometry" />
        </mxCell>
        <mxCell id="3u73HV85L4IYp6hgZmKh-225" value="" style="ellipse;whiteSpace=wrap;html=1;labelBackgroundColor=#FFFFFF;fontSize=13;fontColor=#FFFFFF;strokeWidth=2;fillColor=none;align=center;" parent="3u73HV85L4IYp6hgZmKh-226" vertex="1">
          <mxGeometry width="143" height="100" as="geometry" />
        </mxCell>
        <mxCell id="3u73HV85L4IYp6hgZmKh-237" value="" style="group" parent="1" vertex="1" connectable="0">
          <mxGeometry x="710" y="690" width="140" height="100" as="geometry" />
        </mxCell>
        <mxCell id="3u73HV85L4IYp6hgZmKh-238" value="" style="rounded=0;whiteSpace=wrap;html=1;labelBackgroundColor=#FFFFFF;fontSize=13;fontColor=#FFFFFF;strokeWidth=2;fillColor=none;" parent="3u73HV85L4IYp6hgZmKh-237" vertex="1">
          <mxGeometry width="140" height="100" as="geometry" />
        </mxCell>
        <mxCell id="3u73HV85L4IYp6hgZmKh-239" value="&lt;font color=&quot;#000000&quot;&gt;&lt;b&gt;PROGRAM EXECUTION&lt;/b&gt;&lt;/font&gt;" style="text;html=1;strokeColor=none;fillColor=none;align=center;verticalAlign=middle;whiteSpace=wrap;rounded=0;labelBackgroundColor=#FFFFFF;fontSize=13;fontColor=#FFFFFF;" parent="3u73HV85L4IYp6hgZmKh-237" vertex="1">
          <mxGeometry x="50" y="30" width="40" height="20" as="geometry" />
        </mxCell>
        <mxCell id="3u73HV85L4IYp6hgZmKh-240" value="" style="group" parent="1" vertex="1" connectable="0">
          <mxGeometry x="510" y="690" width="150" height="100" as="geometry" />
        </mxCell>
        <mxCell id="3u73HV85L4IYp6hgZmKh-241" value="" style="rounded=0;whiteSpace=wrap;html=1;labelBackgroundColor=#FFFFFF;fontSize=13;fontColor=#FFFFFF;strokeWidth=2;fillColor=none;" parent="3u73HV85L4IYp6hgZmKh-240" vertex="1">
          <mxGeometry width="150" height="100" as="geometry" />
        </mxCell>
        <mxCell id="3u73HV85L4IYp6hgZmKh-242" value="&lt;font color=&quot;#000000&quot;&gt;&lt;b&gt;DATA PROCESSING&lt;/b&gt;&lt;/font&gt;" style="text;html=1;strokeColor=none;fillColor=none;align=center;verticalAlign=middle;whiteSpace=wrap;rounded=0;labelBackgroundColor=#FFFFFF;fontSize=13;fontColor=#FFFFFF;" parent="3u73HV85L4IYp6hgZmKh-240" vertex="1">
          <mxGeometry x="55" y="30" width="40" height="20" as="geometry" />
        </mxCell>
        <mxCell id="3u73HV85L4IYp6hgZmKh-263" value="" style="group" parent="1" vertex="1" connectable="0">
          <mxGeometry x="190" y="530" width="210" height="110" as="geometry" />
        </mxCell>
        <mxCell id="3u73HV85L4IYp6hgZmKh-221" value="" style="group" parent="3u73HV85L4IYp6hgZmKh-263" vertex="1" connectable="0">
          <mxGeometry width="210" height="110" as="geometry" />
        </mxCell>
        <mxCell id="3u73HV85L4IYp6hgZmKh-215" value="&lt;font color=&quot;#000000&quot;&gt;LOGIC CONTROLLER&lt;/font&gt;" style="text;html=1;strokeColor=none;fillColor=none;align=center;verticalAlign=middle;whiteSpace=wrap;rounded=0;labelBackgroundColor=#FFFFFF;fontSize=13;fontColor=#FFFFFF;fontStyle=1" parent="3u73HV85L4IYp6hgZmKh-221" vertex="1">
          <mxGeometry x="70" y="10" width="70" height="40" as="geometry" />
        </mxCell>
        <mxCell id="3u73HV85L4IYp6hgZmKh-217" value="&lt;font color=&quot;#000000&quot; style=&quot;font-size: 13px;&quot;&gt;Arduino Uno&lt;br style=&quot;font-size: 13px;&quot;&gt;WIFI Rev2&lt;/font&gt;" style="text;html=1;strokeColor=none;fillColor=none;align=center;verticalAlign=middle;whiteSpace=wrap;rounded=0;labelBackgroundColor=#FFFFFF;fontSize=13;fontColor=#FFFFFF;fontStyle=1" parent="3u73HV85L4IYp6hgZmKh-221" vertex="1">
          <mxGeometry x="30" y="60" width="150" height="40" as="geometry" />
        </mxCell>
        <mxCell id="3u73HV85L4IYp6hgZmKh-220" value="" style="rounded=0;whiteSpace=wrap;html=1;labelBackgroundColor=#FFFFFF;fontSize=13;fontColor=#FFFFFF;strokeWidth=2;fillColor=none;align=center;" parent="3u73HV85L4IYp6hgZmKh-221" vertex="1">
          <mxGeometry x="8.5" y="7" width="193" height="95" as="geometry" />
        </mxCell>
        <mxCell id="3u73HV85L4IYp6hgZmKh-211" value="" style="rounded=0;whiteSpace=wrap;html=1;labelBackgroundColor=#FFFFFF;fontSize=13;fontColor=#FFFFFF;strokeWidth=2;fillColor=none;align=center;" parent="3u73HV85L4IYp6hgZmKh-263" vertex="1">
          <mxGeometry width="210" height="110" as="geometry" />
        </mxCell>
        <mxCell id="3u73HV85L4IYp6hgZmKh-274" value="" style="group" parent="1" vertex="1" connectable="0">
          <mxGeometry x="510" y="490" width="200" height="150" as="geometry" />
        </mxCell>
        <mxCell id="3u73HV85L4IYp6hgZmKh-257" value="" style="group" parent="3u73HV85L4IYp6hgZmKh-274" vertex="1" connectable="0">
          <mxGeometry y="40" width="200" height="110" as="geometry" />
        </mxCell>
        <mxCell id="3u73HV85L4IYp6hgZmKh-251" value="" style="rounded=0;whiteSpace=wrap;html=1;labelBackgroundColor=#FFFFFF;fontSize=13;fontColor=#FFFFFF;strokeWidth=2;fillColor=none;align=center;" parent="3u73HV85L4IYp6hgZmKh-257" vertex="1">
          <mxGeometry y="-60" width="200" height="170" as="geometry" />
        </mxCell>
        <mxCell id="3u73HV85L4IYp6hgZmKh-252" value="" style="rounded=0;whiteSpace=wrap;html=1;labelBackgroundColor=#FFFFFF;fontSize=13;fontColor=#FFFFFF;strokeWidth=2;fillColor=none;align=center;" parent="3u73HV85L4IYp6hgZmKh-257" vertex="1">
          <mxGeometry x="8.5" y="-50" width="183" height="152.5" as="geometry" />
        </mxCell>
        <mxCell id="3u73HV85L4IYp6hgZmKh-254" value="Arduino BLE Sense and Laptop" style="text;html=1;strokeColor=none;fillColor=none;align=center;verticalAlign=middle;whiteSpace=wrap;rounded=0;labelBackgroundColor=#FFFFFF;fontSize=13;fontColor=#000000;fontStyle=1" parent="3u73HV85L4IYp6hgZmKh-257" vertex="1">
          <mxGeometry x="38.75" y="60" width="122.5" height="20" as="geometry" />
        </mxCell>
        <mxCell id="3u73HV85L4IYp6hgZmKh-253" value="&lt;b&gt;LOGIC CONTROLLER&lt;/b&gt;" style="text;html=1;strokeColor=none;fillColor=none;align=center;verticalAlign=middle;whiteSpace=wrap;rounded=0;labelBackgroundColor=#FFFFFF;fontSize=13;" parent="3u73HV85L4IYp6hgZmKh-257" vertex="1">
          <mxGeometry x="80" y="10" width="40" height="20" as="geometry" />
        </mxCell>
        <mxCell id="3u73HV85L4IYp6hgZmKh-269" value="MQTT&#xa;protocol" style="outlineConnect=0;fontColor=#232F3E;gradientColor=none;strokeColor=#232F3E;fillColor=#ffffff;verticalLabelPosition=bottom;verticalAlign=top;align=center;html=1;fontSize=9;fontStyle=1;aspect=fixed;shape=mxgraph.aws4.resourceIcon;resIcon=mxgraph.aws4.mqtt_protocol;labelBackgroundColor=#FFFFFF;strokeWidth=7;" parent="3u73HV85L4IYp6hgZmKh-274" vertex="1">
          <mxGeometry x="150" width="30" height="30" as="geometry" />
        </mxCell>
        <mxCell id="3u73HV85L4IYp6hgZmKh-275" value="" style="group" parent="1" vertex="1" connectable="0">
          <mxGeometry x="650" y="290" width="140" height="100" as="geometry" />
        </mxCell>
        <mxCell id="3u73HV85L4IYp6hgZmKh-248" value="" style="ellipse;whiteSpace=wrap;html=1;labelBackgroundColor=#FFFFFF;fontSize=13;fontColor=#FFFFFF;strokeWidth=2;fillColor=none;align=center;" parent="3u73HV85L4IYp6hgZmKh-275" vertex="1">
          <mxGeometry width="140" height="100" as="geometry" />
        </mxCell>
        <mxCell id="3u73HV85L4IYp6hgZmKh-249" value="&lt;font color=&quot;#000000&quot;&gt;&lt;b&gt;User monitoring display&lt;/b&gt;&lt;/font&gt;" style="text;html=1;strokeColor=none;fillColor=none;align=center;verticalAlign=middle;whiteSpace=wrap;rounded=0;labelBackgroundColor=#FFFFFF;fontSize=13;fontColor=#FFFFFF;" parent="3u73HV85L4IYp6hgZmKh-275" vertex="1">
          <mxGeometry x="50" y="15" width="40" height="70" as="geometry" />
        </mxCell>
        <mxCell id="3u73HV85L4IYp6hgZmKh-276" value="" style="group" parent="1" vertex="1" connectable="0">
          <mxGeometry x="750" y="500" width="100" height="110" as="geometry" />
        </mxCell>
        <mxCell id="3u73HV85L4IYp6hgZmKh-266" value="" style="rounded=0;whiteSpace=wrap;html=1;labelBackgroundColor=#FFFFFF;fontSize=13;fontColor=#000000;strokeWidth=2;fillColor=none;align=center;" parent="3u73HV85L4IYp6hgZmKh-276" vertex="1">
          <mxGeometry width="100" height="110" as="geometry" />
        </mxCell>
        <mxCell id="3u73HV85L4IYp6hgZmKh-267" value="&lt;b&gt;AI&lt;br&gt;&amp;nbsp;PLANNING CONTROLLER&lt;/b&gt;" style="text;html=1;strokeColor=none;fillColor=none;align=center;verticalAlign=middle;whiteSpace=wrap;rounded=0;labelBackgroundColor=#FFFFFF;fontSize=13;fontColor=#000000;" parent="3u73HV85L4IYp6hgZmKh-276" vertex="1">
          <mxGeometry x="30" y="35" width="40" height="40" as="geometry" />
        </mxCell>
      </root>
    </mxGraphModel>
  </diagram>
</mxfile>
